<?xml version="1.0" standalone="no"?>
<!DOCTYPE svg PUBLIC "-//W3C//DTD SVG 20010904//EN"
 "http://www.w3.org/TR/2001/REC-SVG-20010904/DTD/svg10.dtd">
<svg version="1.0" xmlns="http://www.w3.org/2000/svg"
 width="260.000000pt" height="260.000000pt" viewBox="0 0 260.000000 260.000000"
 preserveAspectRatio="xMidYMid meet">
<metadata>
Created by potrace 1.11, written by Peter Selinger 2001-2013
</metadata>
<g transform="translate(0.000000,260.000000) scale(0.100000,-0.100000)"
fill="#000000" stroke="none">
<path d="M675 2570 c-45 -14 -91 -64 -103 -113 -13 -54 -16 -2255 -3 -2311 11
-47 52 -92 106 -117 37 -17 77 -19 616 -19 403 0 586 3 610 11 50 17 96 66
118 124 19 50 19 93 21 1154 0 730 -3 1115 -10 1140 -13 51 -43 87 -93 114
-42 22 -43 22 -637 24 -328 1 -609 -3 -625 -7z m821 -234 c20 -27 18 -43 -8
-69 -22 -22 -30 -23 -189 -22 -174 1 -191 5 -205 47 -4 13 1 27 15 42 20 22
27 22 197 22 162 -1 177 -3 190 -20z m338 -1043 c-1 -412 -2 -751 -3 -756 0
-4 -241 -6 -533 -5 l-533 3 0 752 0 753 535 0 536 0 -2 -747z m-479 -871 c44
-27 61 -64 49 -109 -21 -84 -139 -105 -194 -36 -68 87 48 204 145 145z"/>
<path d="M1361 1518 c-24 -51 -59 -128 -79 -170 -19 -43 -38 -78 -42 -78 -4 0
-18 24 -30 54 -15 38 -28 55 -43 58 -12 2 -94 4 -182 3 l-160 0 0 -40 0 -40
153 -1 c84 -1 157 -5 161 -10 4 -5 27 -53 52 -106 24 -54 46 -98 49 -98 5 0
124 244 149 306 7 19 17 34 21 34 5 0 25 -29 45 -64 l38 -63 143 -1 c126 0
144 2 146 17 1 18 1 53 -1 61 0 3 -53 5 -116 5 -64 0 -120 2 -124 5 -5 3 -35
50 -66 105 -31 55 -60 103 -64 108 -4 4 -27 -34 -50 -85z"/>
</g>
</svg>
